G04 #@! TF.GenerationSoftware,KiCad,Pcbnew,9.0.3*
G04 #@! TF.CreationDate,2025-08-18T15:49:34-07:00*
G04 #@! TF.ProjectId,PCB-Keyboard-EDIPO-ALPS,5043422d-4b65-4796-926f-6172642d4544,rev?*
G04 #@! TF.SameCoordinates,Original*
G04 #@! TF.FileFunction,Soldermask,Bot*
G04 #@! TF.FilePolarity,Negative*
%FSLAX46Y46*%
G04 Gerber Fmt 4.6, Leading zero omitted, Abs format (unit mm)*
G04 Created by KiCad (PCBNEW 9.0.3) date 2025-08-18 15:49:34*
%MOMM*%
%LPD*%
G01*
G04 APERTURE LIST*
G04 Aperture macros list*
%AMRoundRect*
0 Rectangle with rounded corners*
0 $1 Rounding radius*
0 $2 $3 $4 $5 $6 $7 $8 $9 X,Y pos of 4 corners*
0 Add a 4 corners polygon primitive as box body*
4,1,4,$2,$3,$4,$5,$6,$7,$8,$9,$2,$3,0*
0 Add four circle primitives for the rounded corners*
1,1,$1+$1,$2,$3*
1,1,$1+$1,$4,$5*
1,1,$1+$1,$6,$7*
1,1,$1+$1,$8,$9*
0 Add four rect primitives between the rounded corners*
20,1,$1+$1,$2,$3,$4,$5,0*
20,1,$1+$1,$4,$5,$6,$7,0*
20,1,$1+$1,$6,$7,$8,$9,0*
20,1,$1+$1,$8,$9,$2,$3,0*%
G04 Aperture macros list end*
%ADD10C,2.250000*%
%ADD11C,3.987800*%
%ADD12C,3.048000*%
%ADD13C,1.750000*%
%ADD14RoundRect,0.225000X0.375000X-0.225000X0.375000X0.225000X-0.375000X0.225000X-0.375000X-0.225000X0*%
%ADD15RoundRect,0.250000X0.350000X0.450000X-0.350000X0.450000X-0.350000X-0.450000X0.350000X-0.450000X0*%
%ADD16RoundRect,0.250000X-0.450000X0.350000X-0.450000X-0.350000X0.450000X-0.350000X0.450000X0.350000X0*%
%ADD17RoundRect,0.137500X-0.600000X0.137500X-0.600000X-0.137500X0.600000X-0.137500X0.600000X0.137500X0*%
%ADD18RoundRect,0.137500X-0.137500X0.600000X-0.137500X-0.600000X0.137500X-0.600000X0.137500X0.600000X0*%
%ADD19RoundRect,0.250000X-0.337500X-0.475000X0.337500X-0.475000X0.337500X0.475000X-0.337500X0.475000X0*%
%ADD20R,0.700000X0.600000*%
%ADD21R,0.700000X1.000000*%
%ADD22RoundRect,0.250001X0.624999X-0.462499X0.624999X0.462499X-0.624999X0.462499X-0.624999X-0.462499X0*%
%ADD23RoundRect,0.250000X-0.325000X-0.450000X0.325000X-0.450000X0.325000X0.450000X-0.325000X0.450000X0*%
%ADD24RoundRect,0.250000X0.337500X0.475000X-0.337500X0.475000X-0.337500X-0.475000X0.337500X-0.475000X0*%
%ADD25RoundRect,0.250000X0.574524X0.097227X0.097227X0.574524X-0.574524X-0.097227X-0.097227X-0.574524X0*%
%ADD26RoundRect,0.250000X0.475000X-0.337500X0.475000X0.337500X-0.475000X0.337500X-0.475000X-0.337500X0*%
%ADD27R,0.600000X2.450000*%
%ADD28R,0.300000X2.450000*%
%ADD29C,0.650000*%
%ADD30R,1.700000X1.700000*%
%ADD31C,1.700000*%
%ADD32R,1.800000X1.100000*%
%ADD33RoundRect,0.250000X0.650000X-0.800000X0.650000X0.800000X-0.650000X0.800000X-0.650000X-0.800000X0*%
%ADD34RoundRect,0.225000X0.424264X0.106066X0.106066X0.424264X-0.424264X-0.106066X-0.106066X-0.424264X0*%
G04 APERTURE END LIST*
D10*
X82173486Y-126889014D03*
X75823486Y-129429014D03*
D11*
X91539736Y-140224014D03*
D12*
X91539736Y-124984014D03*
D13*
X84713486Y-131969014D03*
D11*
X79633486Y-131969014D03*
D13*
X74553486Y-131969014D03*
D11*
X67727236Y-140224014D03*
D12*
X67727236Y-124984014D03*
D10*
X356017236Y-126889014D03*
X349667236Y-129429014D03*
D13*
X358557236Y-131969014D03*
D11*
X353477236Y-131969014D03*
D13*
X348397236Y-131969014D03*
D10*
X170279736Y-126889014D03*
X163929736Y-129429014D03*
D13*
X172819736Y-131969014D03*
D11*
X167739736Y-131969014D03*
D13*
X162659736Y-131969014D03*
D10*
X98842236Y-88789014D03*
X92492236Y-91329014D03*
D13*
X101382236Y-93869014D03*
D11*
X96302236Y-93869014D03*
D13*
X91222236Y-93869014D03*
D10*
X160754736Y-107839014D03*
X154404736Y-110379014D03*
D13*
X163294736Y-112919014D03*
D11*
X158214736Y-112919014D03*
D13*
X153134736Y-112919014D03*
D10*
X132179736Y-126889014D03*
X125829736Y-129429014D03*
D13*
X134719736Y-131969014D03*
D11*
X129639736Y-131969014D03*
D13*
X124559736Y-131969014D03*
D10*
X246479736Y-126889014D03*
X240129736Y-129429014D03*
D13*
X249019736Y-131969014D03*
D11*
X243939736Y-131969014D03*
D13*
X238859736Y-131969014D03*
D10*
X151229736Y-126889014D03*
X144879736Y-129429014D03*
D13*
X153769736Y-131969014D03*
D11*
X148689736Y-131969014D03*
D13*
X143609736Y-131969014D03*
D10*
X336967236Y-126889014D03*
X330617236Y-129429014D03*
D13*
X339507236Y-131969014D03*
D11*
X334427236Y-131969014D03*
D13*
X329347236Y-131969014D03*
D10*
X317917236Y-145939014D03*
X311567236Y-148479014D03*
D13*
X320457236Y-151019014D03*
D11*
X315377236Y-151019014D03*
D13*
X310297236Y-151019014D03*
D10*
X232192236Y-88789014D03*
X225842236Y-91329014D03*
D13*
X234732236Y-93869014D03*
D11*
X229652236Y-93869014D03*
D13*
X224572236Y-93869014D03*
D10*
X222667236Y-69739014D03*
X216317236Y-72279014D03*
D13*
X225207236Y-74819014D03*
D11*
X220127236Y-74819014D03*
D13*
X215047236Y-74819014D03*
D10*
X308392236Y-88789014D03*
X302042236Y-91329014D03*
D13*
X310932236Y-93869014D03*
D11*
X305852236Y-93869014D03*
D13*
X300772236Y-93869014D03*
D10*
X279817236Y-69739014D03*
X273467236Y-72279014D03*
D13*
X282357236Y-74819014D03*
D11*
X277277236Y-74819014D03*
D13*
X272197236Y-74819014D03*
D10*
X165517236Y-69739014D03*
X159167236Y-72279014D03*
D13*
X168057236Y-74819014D03*
D11*
X162977236Y-74819014D03*
D13*
X157897236Y-74819014D03*
D10*
X336967236Y-145939014D03*
X330617236Y-148479014D03*
D13*
X339507236Y-151019014D03*
D11*
X334427236Y-151019014D03*
D13*
X329347236Y-151019014D03*
D10*
X101223486Y-145939014D03*
X94873486Y-148479014D03*
D13*
X103763486Y-151019014D03*
D11*
X98683486Y-151019014D03*
D13*
X93603486Y-151019014D03*
D10*
X356017236Y-88789014D03*
X349667236Y-91329014D03*
D13*
X358557236Y-93869014D03*
D11*
X353477236Y-93869014D03*
D13*
X348397236Y-93869014D03*
D10*
X241717236Y-69739014D03*
X235367236Y-72279014D03*
D13*
X244257236Y-74819014D03*
D11*
X239177236Y-74819014D03*
D13*
X234097236Y-74819014D03*
D10*
X77410986Y-107839014D03*
X71060986Y-110379014D03*
D13*
X79950986Y-112919014D03*
D11*
X74870986Y-112919014D03*
D13*
X69790986Y-112919014D03*
D10*
X217904736Y-107839014D03*
X211554736Y-110379014D03*
D13*
X220444736Y-112919014D03*
D11*
X215364736Y-112919014D03*
D13*
X210284736Y-112919014D03*
D10*
X356017236Y-145939014D03*
X349667236Y-148479014D03*
D13*
X358557236Y-151019014D03*
D11*
X353477236Y-151019014D03*
D13*
X348397236Y-151019014D03*
D10*
X75029736Y-145939014D03*
X68679736Y-148479014D03*
D13*
X77569736Y-151019014D03*
D11*
X72489736Y-151019014D03*
D13*
X67409736Y-151019014D03*
D10*
X203617236Y-69739014D03*
X197267236Y-72279014D03*
D13*
X206157236Y-74819014D03*
D11*
X201077236Y-74819014D03*
D13*
X195997236Y-74819014D03*
D10*
X260767236Y-69739014D03*
X254417236Y-72279014D03*
D13*
X263307236Y-74819014D03*
D11*
X258227236Y-74819014D03*
D13*
X253147236Y-74819014D03*
D10*
X356017236Y-69739014D03*
X349667236Y-72279014D03*
D13*
X358557236Y-74819014D03*
D11*
X353477236Y-74819014D03*
D13*
X348397236Y-74819014D03*
D10*
X127417236Y-69739014D03*
X121067236Y-72279014D03*
D13*
X129957236Y-74819014D03*
D11*
X124877236Y-74819014D03*
D13*
X119797236Y-74819014D03*
D10*
X227429736Y-126889014D03*
X221079736Y-129429014D03*
D13*
X229969736Y-131969014D03*
D11*
X224889736Y-131969014D03*
D13*
X219809736Y-131969014D03*
D10*
X325060986Y-107839014D03*
X318710986Y-110379014D03*
D11*
X334427236Y-121174014D03*
D12*
X334427236Y-105934014D03*
D13*
X327600986Y-112919014D03*
D11*
X322520986Y-112919014D03*
D13*
X317440986Y-112919014D03*
D11*
X310614736Y-121174014D03*
D12*
X310614736Y-105934014D03*
D10*
X275054736Y-107839014D03*
X268704736Y-110379014D03*
D13*
X277594736Y-112919014D03*
D11*
X272514736Y-112919014D03*
D13*
X267434736Y-112919014D03*
D10*
X289342236Y-88789014D03*
X282992236Y-91329014D03*
D13*
X291882236Y-93869014D03*
D11*
X286802236Y-93869014D03*
D13*
X281722236Y-93869014D03*
D10*
X298867236Y-145939014D03*
X292517236Y-148479014D03*
D13*
X301407236Y-151019014D03*
D11*
X296327236Y-151019014D03*
D13*
X291247236Y-151019014D03*
D10*
X332204736Y-88789014D03*
X325854736Y-91329014D03*
D13*
X334744736Y-93869014D03*
D11*
X329664736Y-93869014D03*
D13*
X324584736Y-93869014D03*
D10*
X125028600Y-145939014D03*
X118678600Y-148479014D03*
D13*
X127568600Y-151019014D03*
D11*
X122488600Y-151019014D03*
D13*
X117408600Y-151019014D03*
D10*
X155992236Y-88789014D03*
X149642236Y-91329014D03*
D13*
X158532236Y-93869014D03*
D11*
X153452236Y-93869014D03*
D13*
X148372236Y-93869014D03*
D10*
X194092236Y-88789014D03*
X187742236Y-91329014D03*
D13*
X196632236Y-93869014D03*
D11*
X191552236Y-93869014D03*
D13*
X186472236Y-93869014D03*
D10*
X103604736Y-107839014D03*
X97254736Y-110379014D03*
D13*
X106144736Y-112919014D03*
D11*
X101064736Y-112919014D03*
D13*
X95984736Y-112919014D03*
D10*
X270292236Y-88789014D03*
X263942236Y-91329014D03*
D13*
X272832236Y-93869014D03*
D11*
X267752236Y-93869014D03*
D13*
X262672236Y-93869014D03*
D10*
X136942236Y-88789014D03*
X130592236Y-91329014D03*
D13*
X139482236Y-93869014D03*
D11*
X134402236Y-93869014D03*
D13*
X129322236Y-93869014D03*
D10*
X146467236Y-69739014D03*
X140117236Y-72279014D03*
D13*
X149007236Y-74819014D03*
D11*
X143927236Y-74819014D03*
D13*
X138847236Y-74819014D03*
D10*
X213142236Y-88789014D03*
X206792236Y-91329014D03*
D13*
X215682236Y-93869014D03*
D11*
X210602236Y-93869014D03*
D13*
X205522236Y-93869014D03*
D10*
X189329736Y-126889014D03*
X182979736Y-129429014D03*
D13*
X191869736Y-131969014D03*
D11*
X186789736Y-131969014D03*
D13*
X181709736Y-131969014D03*
D10*
X298867236Y-69739014D03*
X292517236Y-72279014D03*
D13*
X301407236Y-74819014D03*
D11*
X296327236Y-74819014D03*
D13*
X291247236Y-74819014D03*
D10*
X117892236Y-88789014D03*
X111542236Y-91329014D03*
D13*
X120432236Y-93869014D03*
D11*
X115352236Y-93869014D03*
D13*
X110272236Y-93869014D03*
D10*
X89317236Y-69739014D03*
X82967236Y-72279014D03*
D13*
X91857236Y-74819014D03*
D11*
X86777236Y-74819014D03*
D13*
X81697236Y-74819014D03*
D10*
X70267236Y-69739014D03*
X63917236Y-72279014D03*
D13*
X72807236Y-74819014D03*
D11*
X67727236Y-74819014D03*
D13*
X62647236Y-74819014D03*
D10*
X141704736Y-107839014D03*
X135354736Y-110379014D03*
D13*
X144244736Y-112919014D03*
D11*
X139164736Y-112919014D03*
D13*
X134084736Y-112919014D03*
D10*
X265529736Y-126889014D03*
X259179736Y-129429014D03*
D13*
X268069736Y-131969014D03*
D11*
X262989736Y-131969014D03*
D13*
X257909736Y-131969014D03*
D10*
X256004736Y-107839014D03*
X249654736Y-110379014D03*
D13*
X258544736Y-112919014D03*
D11*
X253464736Y-112919014D03*
D13*
X248384736Y-112919014D03*
D10*
X310773486Y-126889014D03*
X304423486Y-129429014D03*
D13*
X313313486Y-131969014D03*
D11*
X308233486Y-131969014D03*
D13*
X303153486Y-131969014D03*
D10*
X198854736Y-107839014D03*
X192504736Y-110379014D03*
D13*
X201394736Y-112919014D03*
D11*
X196314736Y-112919014D03*
D13*
X191234736Y-112919014D03*
D10*
X279800100Y-145939014D03*
X273450100Y-148479014D03*
D13*
X282340100Y-151019014D03*
D11*
X277260100Y-151019014D03*
D13*
X272180100Y-151019014D03*
D10*
X251242236Y-88789014D03*
X244892236Y-91329014D03*
D13*
X253782236Y-93869014D03*
D11*
X248702236Y-93869014D03*
D13*
X243622236Y-93869014D03*
D10*
X203617236Y-145939014D03*
X197267236Y-148479014D03*
D12*
X258227236Y-158004014D03*
D11*
X258227236Y-142764014D03*
D13*
X206157236Y-151019014D03*
D11*
X201077236Y-151019014D03*
D13*
X195997236Y-151019014D03*
D12*
X143927236Y-158004014D03*
D11*
X143927236Y-142764014D03*
D10*
X294104736Y-107839014D03*
X287754736Y-110379014D03*
D13*
X296644736Y-112919014D03*
D11*
X291564736Y-112919014D03*
D13*
X286484736Y-112919014D03*
D10*
X75029736Y-88789014D03*
X68679736Y-91329014D03*
D13*
X77569736Y-93869014D03*
D11*
X72489736Y-93869014D03*
D13*
X67409736Y-93869014D03*
D10*
X236954736Y-107839014D03*
X230604736Y-110379014D03*
D13*
X239494736Y-112919014D03*
D11*
X234414736Y-112919014D03*
D13*
X229334736Y-112919014D03*
D10*
X108367236Y-69739014D03*
X102017236Y-72279014D03*
D13*
X110907236Y-74819014D03*
D11*
X105827236Y-74819014D03*
D13*
X100747236Y-74819014D03*
D10*
X122654736Y-107839014D03*
X116304736Y-110379014D03*
D13*
X125194736Y-112919014D03*
D11*
X120114736Y-112919014D03*
D13*
X115034736Y-112919014D03*
D10*
X184567236Y-69739014D03*
X178217236Y-72279014D03*
D13*
X187107236Y-74819014D03*
D11*
X182027236Y-74819014D03*
D13*
X176947236Y-74819014D03*
D10*
X179804736Y-107839014D03*
X173454736Y-110379014D03*
D13*
X182344736Y-112919014D03*
D11*
X177264736Y-112919014D03*
D13*
X172184736Y-112919014D03*
D10*
X175042236Y-88789014D03*
X168692236Y-91329014D03*
D13*
X177582236Y-93869014D03*
D11*
X172502236Y-93869014D03*
D13*
X167422236Y-93869014D03*
D10*
X113129736Y-126889014D03*
X106779736Y-129429014D03*
D13*
X115669736Y-131969014D03*
D11*
X110589736Y-131969014D03*
D13*
X105509736Y-131969014D03*
D10*
X208379736Y-126889014D03*
X202029736Y-129429014D03*
D13*
X210919736Y-131969014D03*
D11*
X205839736Y-131969014D03*
D13*
X200759736Y-131969014D03*
D10*
X356017236Y-107839014D03*
X349667236Y-110379014D03*
D13*
X358557236Y-112919014D03*
D11*
X353477236Y-112919014D03*
D13*
X348397236Y-112919014D03*
D10*
X284579736Y-126889014D03*
X278229736Y-129429014D03*
D13*
X287119736Y-131969014D03*
D11*
X282039736Y-131969014D03*
D13*
X276959736Y-131969014D03*
D10*
X327442236Y-69739014D03*
X321092236Y-72279014D03*
D11*
X336808486Y-83074014D03*
D12*
X336808486Y-67834014D03*
D13*
X329982236Y-74819014D03*
D11*
X324902236Y-74819014D03*
D13*
X319822236Y-74819014D03*
D11*
X312995986Y-83074014D03*
D12*
X312995986Y-67834014D03*
D14*
X151794100Y-75315550D03*
X151794100Y-78615550D03*
D15*
X248757500Y-153141250D03*
X250757500Y-153141250D03*
D14*
X142269100Y-94492550D03*
X142269100Y-97792550D03*
X108741100Y-113413550D03*
X108741100Y-116713550D03*
X316054500Y-132717550D03*
X316054500Y-136017550D03*
X342343500Y-132717550D03*
X342343500Y-136017550D03*
D16*
X213764100Y-131605350D03*
X213764100Y-129605350D03*
D14*
X356630100Y-77158550D03*
X356630100Y-80458550D03*
X256569100Y-94492550D03*
X256569100Y-97792550D03*
X180115100Y-94492550D03*
X180115100Y-97792550D03*
X323117100Y-151894550D03*
X323117100Y-155194550D03*
D17*
X219013036Y-144796214D03*
X219013036Y-145596214D03*
X219013036Y-146396214D03*
X219013036Y-147196214D03*
X219013036Y-147996214D03*
X219013036Y-148796214D03*
X219013036Y-149596214D03*
X219013036Y-150396214D03*
X219013036Y-151196214D03*
X219013036Y-151996214D03*
X219013036Y-152796214D03*
D18*
X220675536Y-154458714D03*
X221475536Y-154458714D03*
X222275536Y-154458714D03*
X223075536Y-154458714D03*
X223875536Y-154458714D03*
X224675536Y-154458714D03*
X225475536Y-154458714D03*
X226275536Y-154458714D03*
X227075536Y-154458714D03*
X227875536Y-154458714D03*
X228675536Y-154458714D03*
D17*
X230338036Y-152796214D03*
X230338036Y-151996214D03*
X230338036Y-151196214D03*
X230338036Y-150396214D03*
X230338036Y-149596214D03*
X230338036Y-148796214D03*
X230338036Y-147996214D03*
X230338036Y-147196214D03*
X230338036Y-146396214D03*
X230338036Y-145596214D03*
X230338036Y-144796214D03*
D18*
X228675536Y-143133714D03*
X227875536Y-143133714D03*
X227075536Y-143133714D03*
X226275536Y-143133714D03*
X225475536Y-143133714D03*
X224675536Y-143133714D03*
X223875536Y-143133714D03*
X223075536Y-143133714D03*
X222275536Y-143133714D03*
X221475536Y-143133714D03*
X220675536Y-143133714D03*
D19*
X244425000Y-150237500D03*
X242350000Y-150237500D03*
D14*
X82706100Y-113413550D03*
X82706100Y-116713550D03*
X280191100Y-113510336D03*
X280191100Y-116810336D03*
X285197100Y-151894550D03*
X285197100Y-155194550D03*
X75975100Y-75315550D03*
X75975100Y-78615550D03*
X356630100Y-134304950D03*
X356630100Y-137604950D03*
X285017100Y-75696550D03*
X285017100Y-78996550D03*
X337468100Y-94492550D03*
X337468100Y-97792550D03*
D20*
X209618236Y-76551214D03*
X209618236Y-78451214D03*
X211618236Y-78451214D03*
D21*
X211618236Y-76751214D03*
D14*
X175543100Y-132717550D03*
X175543100Y-136017550D03*
X161446100Y-94492550D03*
X161446100Y-97792550D03*
X304194100Y-75696550D03*
X304194100Y-78996550D03*
D22*
X205369836Y-77305014D03*
X205369836Y-80280014D03*
D14*
X218526300Y-115256150D03*
X218526300Y-118556150D03*
X185068100Y-113413550D03*
X185068100Y-116713550D03*
X218469100Y-94492550D03*
X218469100Y-97792550D03*
D19*
X238381250Y-143093750D03*
X236306250Y-143093750D03*
D23*
X220337500Y-67331250D03*
X218287500Y-67331250D03*
D19*
X244425000Y-147062500D03*
X242350000Y-147062500D03*
D14*
X289959300Y-132717550D03*
X289959300Y-136017550D03*
X299241100Y-113413550D03*
X299241100Y-116713550D03*
D24*
X214081250Y-152618750D03*
X216156250Y-152618750D03*
D14*
X261141100Y-113413550D03*
X261141100Y-116713550D03*
X199477500Y-115256150D03*
X199477500Y-118556150D03*
X80420100Y-94492550D03*
X80420100Y-97792550D03*
D16*
X212737500Y-74031250D03*
X212737500Y-72031250D03*
D14*
X330229100Y-113413550D03*
X330229100Y-116713550D03*
X80166100Y-151894550D03*
X80166100Y-155194550D03*
X356630100Y-153353750D03*
X356630100Y-156653750D03*
X189767100Y-75315550D03*
X189767100Y-78615550D03*
X156620100Y-132717550D03*
X156620100Y-136017550D03*
X123219100Y-94492550D03*
X123219100Y-97792550D03*
X106582100Y-151894550D03*
X106582100Y-155194550D03*
D25*
X218657754Y-139245254D03*
X220125000Y-140712500D03*
D14*
X146993500Y-113413550D03*
X146993500Y-116713550D03*
D15*
X218237500Y-156531250D03*
X220237500Y-156531250D03*
D14*
X251997100Y-132717550D03*
X251997100Y-136017550D03*
D26*
X224662500Y-138381250D03*
X224662500Y-140456250D03*
D15*
X206214636Y-72531250D03*
X208214636Y-72531250D03*
D14*
X104169100Y-94492550D03*
X104169100Y-97792550D03*
X294669100Y-94492550D03*
X294669100Y-97792550D03*
X87659100Y-132717550D03*
X87659100Y-136017550D03*
X132744100Y-75315550D03*
X132744100Y-78615550D03*
X118520100Y-132717550D03*
X118520100Y-136017550D03*
X132744100Y-151894550D03*
X132744100Y-155194550D03*
X332769100Y-75696550D03*
X332769100Y-78996550D03*
X242091100Y-113413550D03*
X242091100Y-116713550D03*
X166145100Y-113413550D03*
X166145100Y-116713550D03*
X237265100Y-94492550D03*
X237265100Y-97792550D03*
D27*
X213825236Y-67938814D03*
X213050236Y-67938814D03*
D28*
X212350236Y-67938814D03*
X211850236Y-67938814D03*
X211350236Y-67938814D03*
X210850236Y-67938814D03*
X210350236Y-67938814D03*
X209850236Y-67938814D03*
X209350236Y-67938814D03*
X208850236Y-67938814D03*
D27*
X208150236Y-67938814D03*
X207375236Y-67938814D03*
D29*
X213490236Y-65993814D03*
X207710236Y-65993814D03*
D16*
X215987500Y-131605350D03*
X215987500Y-129605350D03*
D14*
X247044100Y-75696550D03*
X247044100Y-78996550D03*
X266094100Y-75696550D03*
X266094100Y-78996550D03*
X128045100Y-113413550D03*
X128045100Y-116713550D03*
D24*
X214081250Y-144681250D03*
X216156250Y-144681250D03*
D14*
X137316100Y-132717550D03*
X137316100Y-136017550D03*
X199292100Y-94492550D03*
X199292100Y-97792550D03*
X170717100Y-75315550D03*
X170717100Y-78615550D03*
X194593100Y-132717550D03*
X194593100Y-136017550D03*
D19*
X231481250Y-156587500D03*
X229406250Y-156587500D03*
D14*
X356630100Y-115193550D03*
X356630100Y-118493550D03*
D30*
X255036500Y-141051250D03*
D31*
X252496500Y-141051250D03*
X255036500Y-143591250D03*
X252496500Y-143591250D03*
X255036500Y-146131250D03*
X252496500Y-146131250D03*
D14*
X313592100Y-94492550D03*
X313592100Y-97792550D03*
X270793100Y-132717550D03*
X270793100Y-136017550D03*
X193337500Y-75331250D03*
X193337500Y-78631250D03*
X232820100Y-132717550D03*
X232820100Y-136017550D03*
D32*
X259057500Y-149341250D03*
X252857500Y-149341250D03*
X259057500Y-153041250D03*
X252857500Y-153041250D03*
D14*
X342343500Y-151984214D03*
X342343500Y-155284214D03*
X275492100Y-94492550D03*
X275492100Y-97792550D03*
X227867100Y-75823550D03*
X227867100Y-79123550D03*
D33*
X239964636Y-150028414D03*
X239964636Y-147128414D03*
X237664636Y-147128414D03*
X237664636Y-150028414D03*
D14*
X304503164Y-151894550D03*
X304503164Y-155194550D03*
X209001900Y-151984214D03*
X209001900Y-155284214D03*
X356630100Y-96207350D03*
X356630100Y-99507350D03*
X113821100Y-75315550D03*
X113821100Y-78615550D03*
X95025100Y-75315550D03*
X95025100Y-78615550D03*
D34*
X203350774Y-135204524D03*
X205684226Y-137537976D03*
M02*
