M48
; DRILL file {KiCad 9.0.3} date 2025-08-18T15:50:04-0700
; FORMAT={-:-/ absolute / inch / decimal}
; #@! TF.CreationDate,2025-08-18T15:50:04-07:00
; #@! TF.GenerationSoftware,Kicad,Pcbnew,9.0.3
; #@! TF.FileFunction,Plated,1,2,PTH
FMAT,2
INCH
; #@! TA.AperFunction,Plated,PTH,ViaDrill
T1C0.0118
; #@! TA.AperFunction,Plated,PTH,ViaDrill
T2C0.0157
; #@! TA.AperFunction,Plated,PTH,ComponentDrill
T3C0.0236
; #@! TA.AperFunction,Plated,PTH,ComponentDrill
T4C0.0394
; #@! TA.AperFunction,Plated,PTH,ComponentDrill
T5C0.0579
%
G90
G05
T1
X2.7771Y-5.1075
X2.9739Y-3.6908
X3.625Y-5.7812
X3.6826Y-4.3994
X3.6826Y-5.1081
X4.2251Y-6.2721
X4.3282Y-3.8083
X4.3912Y-4.3994
X4.3912Y-5.8168
X4.3991Y-5.076
X5.0448Y-3.7926
X5.092Y-5.0052
X5.0999Y-4.3994
X5.281Y-5.8162
X5.7141Y-3.514
X5.8536Y-4.3994
X6.0133Y-5.7926
X6.516Y-6.2808
X6.5172Y-3.6908
X6.5723Y-4.1964
X6.6117Y-5.3595
X7.1353Y-5.8168
X7.2259Y-3.6908
X7.2545Y-4.17
X7.2968Y-3.0997
X7.4857Y-5.7296
X7.7909Y-5.0713
X7.8282Y-2.702
X7.9164Y-6.2673
X7.9345Y-5.7886
X7.9464Y-6.2453
X7.9788Y-6.2274
X8.0074Y-3.9146
X8.0133Y-6.2099
X8.0251Y-4.6024
X8.0487Y-6.1885
X8.0527Y-3.9569
X8.0536Y-3.8752
X8.0674Y-4.5436
X8.0674Y-4.6577
X8.1038Y-2.7274
X8.1609Y-3.8634
X8.1609Y-3.9776
X8.1619Y-4.5436
X8.1619Y-4.6577
X8.1708Y-4.1528
X8.1924Y-3.0898
X8.1924Y-4.0445
X8.1976Y-3.1649
X8.2288Y-3.2148
X8.2377Y-4.0898
X8.2456Y-2.8083
X8.2456Y-2.9284
X8.2771Y-4.2414
X8.28Y-4.5436
X8.28Y-4.6577
X8.2958Y-3.8634
X8.2958Y-3.9776
X8.3214Y-2.8103
X8.3214Y-2.9304
X8.3243Y-6.165
X8.3302Y-4.1882
X8.342Y-3.1941
X8.344Y-5.0485
X8.3637Y-5.2453
X8.3656Y-3.1312
X8.3731Y-6.1343
X8.3851Y-5.9149
X8.3975Y-5.3386
X8.4163Y-5.8836
X8.4208Y-4.5445
X8.4208Y-4.6587
X8.4345Y-3.1272
X8.4345Y-3.204
X8.466Y-3.8634
X8.466Y-3.9776
X8.4788Y-2.7274
X8.4818Y-3.1646
X8.5097Y-3.9151
X8.5101Y-4.6024
X8.5251Y-2.6508
X8.5336Y-3.2694
X8.5763Y-5.0524
X8.5763Y-5.2375
X8.6351Y-2.7274
X8.6432Y-3.6908
X8.8452Y-6.1973
X8.8464Y-6.2863
X8.9385Y-5.3386
X9.1806Y-5.5347
X9.257Y-6.2071
X9.3519Y-4.3994
X9.3519Y-5.1081
X9.3755Y-3.58
X9.4031Y-6.2138
X9.4227Y-6.1626
X9.4385Y-6.1312
X9.4385Y-6.2335
X9.4582Y-6.0997
X9.466Y-6.2571
X9.4783Y-6.0755
X9.4936Y-6.2768
X9.6015Y-6.0894
X9.7495Y-5.5478
X9.8716Y-5.9776
X9.9956Y-6.2296
X10.0054Y-3.58
X10.0605Y-5.1081
X10.0842Y-4.3595
X10.7283Y-3.0402
X10.7692Y-5.1081
X10.8558Y-4.3674
X11.3845Y-5.79
X11.4779Y-3.0715
X11.5802Y-4.3516
X11.5893Y-6.2654
X12.1865Y-2.9821
X12.1865Y-4.3994
X12.1865Y-5.8168
X12.2282Y-5.1026
X12.8716Y-3.8556
X12.8952Y-2.9821
X12.8952Y-5.1081
X12.8952Y-5.8168
X13.0905Y-6.2666
X13.6038Y-2.9821
X13.6038Y-3.6908
X13.6038Y-4.3994
X13.6038Y-5.1081
X13.6038Y-5.8168
X13.9975Y-5.5406
X14.0133Y-4.0367
T2
X8.029Y-2.6193
X8.0948Y-5.028
X8.1415Y-5.0288
X8.159Y-2.7768
X8.2032Y-3.2601
X8.2318Y-2.4599
X8.2889Y-2.5583
X8.3489Y-2.4599
X8.3538Y-3.2586
X8.4149Y-2.7768
X8.5101Y-5.4149
X8.5101Y-5.6336
X8.5101Y-6.0711
X8.534Y-3.3536
X8.5726Y-5.5711
X8.7288Y-5.4149
X8.7692Y-2.6508
X8.907Y-5.5721
X9.0101Y-6.2274
X9.266Y-5.8347
X9.3034Y-5.5721
X9.5999Y-5.4424
X9.6826Y-5.9146
X9.6845Y-5.7902
X9.6865Y-5.5721
T4
X9.9408Y-5.5532
X9.9408Y-5.6532
X9.9408Y-5.7532
X10.0408Y-5.5532
X10.0408Y-5.6532
X10.0408Y-5.7532
T5
X2.5164Y-2.8456
X2.7039Y-3.5956
X2.7039Y-5.8456
X2.7664Y-2.7456
X2.7977Y-4.3456
X2.9539Y-3.4956
X2.9539Y-5.7456
X2.9852Y-5.0956
X3.0477Y-4.2456
X3.2352Y-4.9956
X3.2664Y-2.8456
X3.5164Y-2.7456
X3.6414Y-3.5956
X3.7352Y-5.8456
X3.8289Y-4.3456
X3.8914Y-3.4956
X3.9852Y-5.7456
X4.0164Y-2.8456
X4.0789Y-4.2456
X4.2039Y-5.0956
X4.2664Y-2.7456
X4.3914Y-3.5956
X4.4539Y-4.9956
X4.5789Y-4.3456
X4.6414Y-3.4956
X4.6724Y-5.8456
X4.7664Y-2.8456
X4.8289Y-4.2456
X4.9224Y-5.7456
X4.9539Y-5.0956
X5.0164Y-2.7456
X5.1414Y-3.5956
X5.2039Y-4.9956
X5.3289Y-4.3456
X5.3914Y-3.4956
X5.5164Y-2.8456
X5.5789Y-4.2456
X5.7039Y-5.0956
X5.7664Y-2.7456
X5.8914Y-3.5956
X5.9539Y-4.9956
X6.0789Y-4.3456
X6.1414Y-3.4956
X6.2664Y-2.8456
X6.3289Y-4.2456
X6.4539Y-5.0956
X6.5164Y-2.7456
X6.6414Y-3.5956
X6.7039Y-4.9956
X6.8289Y-4.3456
X6.8914Y-3.4956
X7.0164Y-2.8456
X7.0789Y-4.2456
X7.2039Y-5.0956
X7.2664Y-2.7456
X7.3914Y-3.5956
X7.4539Y-4.9956
X7.5789Y-4.3456
X7.6414Y-3.4956
X7.7664Y-2.8456
X7.7664Y-5.8456
X7.8289Y-4.2456
X7.9539Y-5.0956
X8.0164Y-2.7456
X8.0164Y-5.7456
X8.1414Y-3.5956
X8.2039Y-4.9956
X8.3289Y-4.3456
X8.3914Y-3.4956
X8.5164Y-2.8456
X8.5789Y-4.2456
X8.7039Y-5.0956
X8.7664Y-2.7456
X8.8914Y-3.5956
X8.9539Y-4.9956
X9.0789Y-4.3456
X9.1414Y-3.4956
X9.2664Y-2.8456
X9.3289Y-4.2456
X9.4539Y-5.0956
X9.5164Y-2.7456
X9.6414Y-3.5956
X9.7039Y-4.9956
X9.8289Y-4.3456
X9.8914Y-3.4956
X10.0164Y-2.8456
X10.0789Y-4.2456
X10.2039Y-5.0956
X10.2664Y-2.7456
X10.3914Y-3.5956
X10.4539Y-4.9956
X10.5789Y-4.3456
X10.6414Y-3.4956
X10.7658Y-5.8456
X10.7664Y-2.8456
X10.8289Y-4.2456
X10.9539Y-5.0956
X11.0158Y-5.7456
X11.0164Y-2.7456
X11.1414Y-3.5956
X11.2039Y-4.9956
X11.3289Y-4.3456
X11.3914Y-3.4956
X11.5164Y-2.8456
X11.5164Y-5.8456
X11.5789Y-4.2456
X11.7664Y-2.7456
X11.7664Y-5.7456
X11.8914Y-3.5956
X11.9852Y-5.0956
X12.1414Y-3.4956
X12.2352Y-4.9956
X12.2664Y-5.8456
X12.5164Y-5.7456
X12.5477Y-4.3456
X12.6414Y-2.8456
X12.7977Y-4.2456
X12.8289Y-3.5956
X12.8914Y-2.7456
X13.0164Y-5.0956
X13.0164Y-5.8456
X13.0789Y-3.4956
X13.2664Y-4.9956
X13.2664Y-5.7456
X13.7664Y-2.8456
X13.7664Y-3.5956
X13.7664Y-4.3456
X13.7664Y-5.0956
X13.7664Y-5.8456
X14.0164Y-2.7456
X14.0164Y-3.4956
X14.0164Y-4.2456
X14.0164Y-4.9956
X14.0164Y-5.7456
T3
G00X8.1213Y-2.4427
M15
G01X8.1213Y-2.4663
M16
G05
G00X8.1213Y-2.5974
M15
G01X8.1213Y-2.6407
M16
G05
G00X8.4614Y-2.4427
M15
G01X8.4614Y-2.4663
M16
G05
G00X8.4614Y-2.5974
M15
G01X8.4614Y-2.6407
M16
G05
M30
