%TF.GenerationSoftware,KiCad,Pcbnew,9.0.3*%
%TF.CreationDate,2025-08-06T18:50:18-07:00*%
%TF.ProjectId,PCB-Keyboard-EDIPO,5043422d-4b65-4796-926f-6172642d4544,rev?*%
%TF.SameCoordinates,Original*%
%TF.FileFunction,Soldermask,Bot*%
%TF.FilePolarity,Negative*%
%FSLAX46Y46*%
G04 Gerber Fmt 4.6, Leading zero omitted, Abs format (unit mm)*
G04 Created by KiCad (PCBNEW 9.0.3) date 2025-08-06 18:50:18*
%MOMM*%
%LPD*%
G01*
G04 APERTURE LIST*
G04 Aperture macros list*
%AMRoundRect*
0 Rectangle with rounded corners*
0 $1 Rounding radius*
0 $2 $3 $4 $5 $6 $7 $8 $9 X,Y pos of 4 corners*
0 Add a 4 corners polygon primitive as box body*
4,1,4,$2,$3,$4,$5,$6,$7,$8,$9,$2,$3,0*
0 Add four circle primitives for the rounded corners*
1,1,$1+$1,$2,$3*
1,1,$1+$1,$4,$5*
1,1,$1+$1,$6,$7*
1,1,$1+$1,$8,$9*
0 Add four rect primitives between the rounded corners*
20,1,$1+$1,$2,$3,$4,$5,0*
20,1,$1+$1,$4,$5,$6,$7,0*
20,1,$1+$1,$6,$7,$8,$9,0*
20,1,$1+$1,$8,$9,$2,$3,0*%
G04 Aperture macros list end*
%ADD10C,2.250000*%
%ADD11RoundRect,0.225000X0.375000X-0.225000X0.375000X0.225000X-0.375000X0.225000X-0.375000X-0.225000X0*%
%ADD12RoundRect,0.250000X0.350000X0.450000X-0.350000X0.450000X-0.350000X-0.450000X0.350000X-0.450000X0*%
%ADD13RoundRect,0.250000X-0.450000X0.350000X-0.450000X-0.350000X0.450000X-0.350000X0.450000X0.350000X0*%
%ADD14RoundRect,0.137500X-0.137500X0.600000X-0.137500X-0.600000X0.137500X-0.600000X0.137500X0.600000X0*%
%ADD15RoundRect,0.137500X-0.600000X0.137500X-0.600000X-0.137500X0.600000X-0.137500X0.600000X0.137500X0*%
%ADD16RoundRect,0.250000X-0.337500X-0.475000X0.337500X-0.475000X0.337500X0.475000X-0.337500X0.475000X0*%
%ADD17R,0.700000X1.000000*%
%ADD18R,0.700000X0.600000*%
%ADD19RoundRect,0.250001X0.624999X-0.462499X0.624999X0.462499X-0.624999X0.462499X-0.624999X-0.462499X0*%
%ADD20RoundRect,0.250000X-0.325000X-0.450000X0.325000X-0.450000X0.325000X0.450000X-0.325000X0.450000X0*%
%ADD21RoundRect,0.250000X0.337500X0.475000X-0.337500X0.475000X-0.337500X-0.475000X0.337500X-0.475000X0*%
%ADD22RoundRect,0.250000X-0.350000X-0.450000X0.350000X-0.450000X0.350000X0.450000X-0.350000X0.450000X0*%
%ADD23RoundRect,0.250000X0.574524X0.097227X0.097227X0.574524X-0.574524X-0.097227X-0.097227X-0.574524X0*%
%ADD24RoundRect,0.250000X0.475000X-0.337500X0.475000X0.337500X-0.475000X0.337500X-0.475000X-0.337500X0*%
%ADD25C,0.650000*%
%ADD26R,0.600000X2.450000*%
%ADD27R,0.300000X2.450000*%
%ADD28C,1.700000*%
%ADD29R,1.700000X1.700000*%
%ADD30R,1.800000X1.100000*%
%ADD31RoundRect,0.250000X0.650000X-0.800000X0.650000X0.800000X-0.650000X0.800000X-0.650000X-0.800000X0*%
G04 APERTURE END LIST*
D10*
%TO.C,SW45*%
X36395986Y86562236D03*
X41395986Y87062236D03*
%TD*%
%TO.C,SW58*%
X310239736Y86562236D03*
X315239736Y87062236D03*
%TD*%
%TO.C,SW49*%
X124502236Y86562236D03*
X129502236Y87062236D03*
%TD*%
%TO.C,SW17*%
X53064736Y124662236D03*
X58064736Y125162236D03*
%TD*%
%TO.C,SW35*%
X114977236Y105612236D03*
X119977236Y106112236D03*
%TD*%
%TO.C,SW47*%
X86402236Y86562236D03*
X91402236Y87062236D03*
%TD*%
%TO.C,SW53*%
X200702236Y86562236D03*
X205702236Y87062236D03*
%TD*%
%TO.C,SW48*%
X105452236Y86562236D03*
X110452236Y87062236D03*
%TD*%
%TO.C,SW57*%
X291189736Y86562236D03*
X296189736Y87062236D03*
%TD*%
%TO.C,SW65*%
X272139736Y67512236D03*
X277139736Y68012236D03*
%TD*%
%TO.C,SW24*%
X186414736Y124662236D03*
X191414736Y125162236D03*
%TD*%
%TO.C,SW9*%
X176889736Y143712236D03*
X181889736Y144212236D03*
%TD*%
%TO.C,SW28*%
X262614736Y124662236D03*
X267614736Y125162236D03*
%TD*%
%TO.C,SW12*%
X234039736Y143712236D03*
X239039736Y144212236D03*
%TD*%
%TO.C,SW6*%
X119739736Y143712236D03*
X124739736Y144212236D03*
%TD*%
%TO.C,SW66*%
X291189736Y67512236D03*
X296189736Y68012236D03*
%TD*%
%TO.C,SW60*%
X55445986Y67512236D03*
X60445986Y68012236D03*
%TD*%
%TO.C,SW30*%
X310239736Y124662236D03*
X315239736Y125162236D03*
%TD*%
%TO.C,SW10*%
X195939736Y143712236D03*
X200939736Y144212236D03*
%TD*%
%TO.C,SW31*%
X31633486Y105612236D03*
X36633486Y106112236D03*
%TD*%
%TO.C,SW38*%
X172127236Y105612236D03*
X177127236Y106112236D03*
%TD*%
%TO.C,SW67*%
X310239736Y67512236D03*
X315239736Y68012236D03*
%TD*%
%TO.C,SW59*%
X29252236Y67512236D03*
X34252236Y68012236D03*
%TD*%
%TO.C,SW8*%
X157839736Y143712236D03*
X162839736Y144212236D03*
%TD*%
%TO.C,SW11*%
X214989736Y143712236D03*
X219989736Y144212236D03*
%TD*%
%TO.C,SW15*%
X310239736Y143712236D03*
X315239736Y144212236D03*
%TD*%
%TO.C,SW4*%
X81639736Y143712236D03*
X86639736Y144212236D03*
%TD*%
%TO.C,SW52*%
X181652236Y86562236D03*
X186652236Y87062236D03*
%TD*%
%TO.C,SW43*%
X279283486Y105612236D03*
X284283486Y106112236D03*
%TD*%
%TO.C,SW41*%
X229277236Y105612236D03*
X234277236Y106112236D03*
%TD*%
%TO.C,SW27*%
X243564736Y124662236D03*
X248564736Y125162236D03*
%TD*%
%TO.C,SW64*%
X253089736Y67512236D03*
X258089736Y68012236D03*
%TD*%
%TO.C,SW29*%
X286427236Y124662236D03*
X291427236Y125162236D03*
%TD*%
%TO.C,SW61*%
X81639736Y67512236D03*
X86639736Y68012236D03*
%TD*%
%TO.C,SW20*%
X110214736Y124662236D03*
X115214736Y125162236D03*
%TD*%
%TO.C,SW22*%
X148314736Y124662236D03*
X153314736Y125162236D03*
%TD*%
%TO.C,SW32*%
X57827236Y105612236D03*
X62827236Y106112236D03*
%TD*%
%TO.C,SW26*%
X224514736Y124662236D03*
X229514736Y125162236D03*
%TD*%
%TO.C,SW19*%
X91164736Y124662236D03*
X96164736Y125162236D03*
%TD*%
%TO.C,SW5*%
X100689736Y143712236D03*
X105689736Y144212236D03*
%TD*%
%TO.C,SW23*%
X167364736Y124662236D03*
X172364736Y125162236D03*
%TD*%
%TO.C,SW50*%
X143552236Y86562236D03*
X148552236Y87062236D03*
%TD*%
%TO.C,SW13*%
X253089736Y143712236D03*
X258089736Y144212236D03*
%TD*%
%TO.C,SW18*%
X72114736Y124662236D03*
X77114736Y125162236D03*
%TD*%
%TO.C,SW2*%
X43539736Y143712236D03*
X48539736Y144212236D03*
%TD*%
%TO.C,SW1*%
X24489736Y143712236D03*
X29489736Y144212236D03*
%TD*%
%TO.C,SW34*%
X95927236Y105612236D03*
X100927236Y106112236D03*
%TD*%
%TO.C,SW54*%
X219752236Y86562236D03*
X224752236Y87062236D03*
%TD*%
%TO.C,SW40*%
X210227236Y105612236D03*
X215227236Y106112236D03*
%TD*%
%TO.C,SW56*%
X264995986Y86562236D03*
X269995986Y87062236D03*
%TD*%
%TO.C,SW37*%
X153077236Y105612236D03*
X158077236Y106112236D03*
%TD*%
%TO.C,SW63*%
X231658486Y67512236D03*
X236658486Y68012236D03*
%TD*%
%TO.C,SW25*%
X205464736Y124662236D03*
X210464736Y125162236D03*
%TD*%
%TO.C,SW62*%
X157839736Y67512236D03*
X162839736Y68012236D03*
%TD*%
%TO.C,SW42*%
X248327236Y105612236D03*
X253327236Y106112236D03*
%TD*%
%TO.C,SW16*%
X29252236Y124662236D03*
X34252236Y125162236D03*
%TD*%
%TO.C,SW39*%
X191177236Y105612236D03*
X196177236Y106112236D03*
%TD*%
%TO.C,SW3*%
X62589736Y143712236D03*
X67589736Y144212236D03*
%TD*%
%TO.C,SW33*%
X76877236Y105612236D03*
X81877236Y106112236D03*
%TD*%
%TO.C,SW7*%
X138789736Y143712236D03*
X143789736Y144212236D03*
%TD*%
%TO.C,SW36*%
X134027236Y105612236D03*
X139027236Y106112236D03*
%TD*%
%TO.C,SW21*%
X129264736Y124662236D03*
X134264736Y125162236D03*
%TD*%
%TO.C,SW46*%
X67352236Y86562236D03*
X72352236Y87062236D03*
%TD*%
%TO.C,SW51*%
X162602236Y86562236D03*
X167602236Y87062236D03*
%TD*%
%TO.C,SW44*%
X310239736Y105612236D03*
X315239736Y106112236D03*
%TD*%
%TO.C,SW55*%
X238802236Y86562236D03*
X243802236Y87062236D03*
%TD*%
%TO.C,SW14*%
X281664736Y143712236D03*
X286664736Y144212236D03*
%TD*%
D11*
%TO.C,D5*%
X108193536Y135826036D03*
X108193536Y139126036D03*
%TD*%
D12*
%TO.C,R2*%
X210000000Y61000000D03*
X208000000Y61000000D03*
%TD*%
D11*
%TO.C,D19*%
X98668536Y116649036D03*
X98668536Y119949036D03*
%TD*%
%TO.C,D32*%
X65140536Y97728036D03*
X65140536Y101028036D03*
%TD*%
%TO.C,D56*%
X272150536Y78424036D03*
X272150536Y81724036D03*
%TD*%
%TO.C,D57*%
X298439536Y78424036D03*
X298439536Y81724036D03*
%TD*%
D13*
%TO.C,R3*%
X177686800Y82670599D03*
X177686800Y80670599D03*
%TD*%
D11*
%TO.C,D15*%
X317743536Y135445036D03*
X317743536Y138745036D03*
%TD*%
%TO.C,D25*%
X212968536Y116649036D03*
X212968536Y119949036D03*
%TD*%
%TO.C,D21*%
X136514536Y116649036D03*
X136514536Y119949036D03*
%TD*%
%TO.C,D65*%
X279516536Y59247036D03*
X279516536Y62547036D03*
%TD*%
D14*
%TO.C,U1*%
X179938036Y71397536D03*
X180738036Y71397536D03*
X181538036Y71397536D03*
X182338036Y71397536D03*
X183138036Y71397536D03*
X183938036Y71397536D03*
X184738036Y71397536D03*
X185538036Y71397536D03*
X186338036Y71397536D03*
X187138036Y71397536D03*
X187938036Y71397536D03*
D15*
X189600536Y69735036D03*
X189600536Y68935036D03*
X189600536Y68135036D03*
X189600536Y67335036D03*
X189600536Y66535036D03*
X189600536Y65735036D03*
X189600536Y64935036D03*
X189600536Y64135036D03*
X189600536Y63335036D03*
X189600536Y62535036D03*
X189600536Y61735036D03*
D14*
X187938036Y60072536D03*
X187138036Y60072536D03*
X186338036Y60072536D03*
X185538036Y60072536D03*
X184738036Y60072536D03*
X183938036Y60072536D03*
X183138036Y60072536D03*
X182338036Y60072536D03*
X181538036Y60072536D03*
X180738036Y60072536D03*
X179938036Y60072536D03*
D15*
X178275536Y61735036D03*
X178275536Y62535036D03*
X178275536Y63335036D03*
X178275536Y64135036D03*
X178275536Y64935036D03*
X178275536Y65735036D03*
X178275536Y66535036D03*
X178275536Y67335036D03*
X178275536Y68135036D03*
X178275536Y68935036D03*
X178275536Y69735036D03*
%TD*%
D16*
%TO.C,C3*%
X201612500Y64293750D03*
X203687500Y64293750D03*
%TD*%
D11*
%TO.C,D31*%
X39105536Y97728036D03*
X39105536Y101028036D03*
%TD*%
%TO.C,D41*%
X236590536Y97631250D03*
X236590536Y100931250D03*
%TD*%
%TO.C,D63*%
X239130536Y59247036D03*
X239130536Y62547036D03*
%TD*%
%TO.C,D1*%
X32374536Y135826036D03*
X32374536Y139126036D03*
%TD*%
%TO.C,D58*%
X317489536Y78424036D03*
X317489536Y81724036D03*
%TD*%
%TO.C,D12*%
X241416536Y135445036D03*
X241416536Y138745036D03*
%TD*%
%TO.C,D29*%
X293867536Y116649036D03*
X293867536Y119949036D03*
%TD*%
D17*
%TO.C,U2*%
X170880736Y137780036D03*
D18*
X170880736Y136080036D03*
X168880736Y136080036D03*
X168880736Y137980036D03*
%TD*%
D11*
%TO.C,D49*%
X131942536Y78424036D03*
X131942536Y81724036D03*
%TD*%
%TO.C,D20*%
X117845536Y116649036D03*
X117845536Y119949036D03*
%TD*%
%TO.C,D13*%
X260593536Y135445036D03*
X260593536Y138745036D03*
%TD*%
D19*
%TO.C,F1*%
X164632336Y134251236D03*
X164632336Y137226236D03*
%TD*%
D11*
%TO.C,D38*%
X179440536Y97728036D03*
X179440536Y101028036D03*
%TD*%
%TO.C,D36*%
X141467536Y97728036D03*
X141467536Y101028036D03*
%TD*%
%TO.C,D23*%
X174868536Y116649036D03*
X174868536Y119949036D03*
%TD*%
D16*
%TO.C,C6*%
X195568750Y71437500D03*
X197643750Y71437500D03*
%TD*%
D20*
%TO.C,FB1*%
X177550000Y147200000D03*
X179600000Y147200000D03*
%TD*%
D16*
%TO.C,C2*%
X201612500Y67468750D03*
X203687500Y67468750D03*
%TD*%
D11*
%TO.C,D55*%
X245607536Y78424036D03*
X245607536Y81724036D03*
%TD*%
%TO.C,D42*%
X255640536Y97728036D03*
X255640536Y101028036D03*
%TD*%
D21*
%TO.C,C5*%
X175418750Y61912500D03*
X173343750Y61912500D03*
%TD*%
D11*
%TO.C,D40*%
X217540536Y97728036D03*
X217540536Y101028036D03*
%TD*%
%TO.C,D37*%
X160517536Y97728036D03*
X160517536Y101028036D03*
%TD*%
%TO.C,D16*%
X36819536Y116649036D03*
X36819536Y119949036D03*
%TD*%
D22*
%TO.C,R5*%
X172328536Y141795036D03*
X174328536Y141795036D03*
%TD*%
D11*
%TO.C,D43*%
X286628536Y97728036D03*
X286628536Y101028036D03*
%TD*%
%TO.C,D59*%
X36565536Y59247036D03*
X36565536Y62547036D03*
%TD*%
%TO.C,D67*%
X317489536Y59247036D03*
X317489536Y62547036D03*
%TD*%
%TO.C,D7*%
X146166536Y135826036D03*
X146166536Y139126036D03*
%TD*%
%TO.C,D48*%
X113019536Y78424036D03*
X113019536Y81724036D03*
%TD*%
%TO.C,D18*%
X79618536Y116649036D03*
X79618536Y119949036D03*
%TD*%
%TO.C,D60*%
X62981536Y59247036D03*
X62981536Y62547036D03*
%TD*%
D23*
%TO.C,C8*%
X179387500Y73818750D03*
X177920254Y75285996D03*
%TD*%
D11*
%TO.C,D34*%
X103392936Y97728036D03*
X103392936Y101028036D03*
%TD*%
D12*
%TO.C,R1*%
X179500000Y58000000D03*
X177500000Y58000000D03*
%TD*%
D11*
%TO.C,D53*%
X208396536Y78424036D03*
X208396536Y81724036D03*
%TD*%
D24*
%TO.C,C1*%
X183900000Y73300000D03*
X183900000Y75375000D03*
%TD*%
D12*
%TO.C,R6*%
X167477136Y141795036D03*
X165477136Y141795036D03*
%TD*%
D11*
%TO.C,D17*%
X60568536Y116649036D03*
X60568536Y119949036D03*
%TD*%
%TO.C,D27*%
X251068536Y116649036D03*
X251068536Y119949036D03*
%TD*%
%TO.C,D45*%
X44058536Y78424036D03*
X44058536Y81724036D03*
%TD*%
%TO.C,D4*%
X89143536Y135826036D03*
X89143536Y139126036D03*
%TD*%
%TO.C,D46*%
X74919536Y78424036D03*
X74919536Y81724036D03*
%TD*%
%TO.C,D61*%
X89143536Y59247036D03*
X89143536Y62547036D03*
%TD*%
%TO.C,D14*%
X289168536Y135445036D03*
X289168536Y138745036D03*
%TD*%
%TO.C,D39*%
X198490536Y97728036D03*
X198490536Y101028036D03*
%TD*%
%TO.C,D35*%
X122544536Y97728036D03*
X122544536Y101028036D03*
%TD*%
%TO.C,D24*%
X193664536Y116649036D03*
X193664536Y119949036D03*
%TD*%
D25*
%TO.C,USB1*%
X166972736Y148537436D03*
X172752736Y148537436D03*
D26*
X166637736Y146592436D03*
X167412736Y146592436D03*
D27*
X168112736Y146592436D03*
X168612736Y146592436D03*
X169112736Y146592436D03*
X169612736Y146592436D03*
X170112736Y146592436D03*
X170612736Y146592436D03*
X171112736Y146592436D03*
X171612736Y146592436D03*
D26*
X172312736Y146592436D03*
X173087736Y146592436D03*
%TD*%
D13*
%TO.C,R4*%
X179804400Y82670599D03*
X179804400Y80670599D03*
%TD*%
D11*
%TO.C,D10*%
X203443536Y135445036D03*
X203443536Y138745036D03*
%TD*%
%TO.C,D11*%
X222493536Y135445036D03*
X222493536Y138745036D03*
%TD*%
%TO.C,D33*%
X84444536Y97728036D03*
X84444536Y101028036D03*
%TD*%
D21*
%TO.C,C7*%
X175418750Y69850000D03*
X173343750Y69850000D03*
%TD*%
D11*
%TO.C,D47*%
X93715536Y78424036D03*
X93715536Y81724036D03*
%TD*%
%TO.C,D22*%
X155691536Y116649036D03*
X155691536Y119949036D03*
%TD*%
%TO.C,D6*%
X127116536Y135826036D03*
X127116536Y139126036D03*
%TD*%
%TO.C,D50*%
X150992536Y78424036D03*
X150992536Y81724036D03*
%TD*%
D16*
%TO.C,C4*%
X188668750Y57943750D03*
X190743750Y57943750D03*
%TD*%
D11*
%TO.C,D44*%
X317489536Y97728036D03*
X317489536Y101028036D03*
%TD*%
D28*
%TO.C,J1*%
X213560000Y68400000D03*
X216100000Y68400000D03*
X213560000Y70940000D03*
X216100000Y70940000D03*
X213560000Y73480000D03*
D29*
X216100000Y73480000D03*
%TD*%
D11*
%TO.C,D28*%
X269991536Y116649036D03*
X269991536Y119949036D03*
%TD*%
%TO.C,D54*%
X227192536Y78424036D03*
X227192536Y81724036D03*
%TD*%
%TO.C,D8*%
X155513736Y135826036D03*
X155513736Y139126036D03*
%TD*%
%TO.C,D52*%
X189219536Y78424036D03*
X189219536Y81724036D03*
%TD*%
D30*
%TO.C,SW68*%
X212100000Y61100000D03*
X218300000Y61100000D03*
X212100000Y64800000D03*
X218300000Y64800000D03*
%TD*%
D11*
%TO.C,D66*%
X298566536Y59247036D03*
X298566536Y62547036D03*
%TD*%
%TO.C,D26*%
X231891536Y116649036D03*
X231891536Y119949036D03*
%TD*%
%TO.C,D9*%
X184266536Y135318036D03*
X184266536Y138618036D03*
%TD*%
D31*
%TO.C,Y1*%
X196927136Y64502836D03*
X196927136Y67402836D03*
X199227136Y67402836D03*
X199227136Y64502836D03*
%TD*%
D11*
%TO.C,D64*%
X259450536Y59247036D03*
X259450536Y62547036D03*
%TD*%
%TO.C,D62*%
X165089536Y59247036D03*
X165089536Y62547036D03*
%TD*%
%TO.C,D30*%
X317489536Y116649036D03*
X317489536Y119949036D03*
%TD*%
%TO.C,D3*%
X70220536Y135826036D03*
X70220536Y139126036D03*
%TD*%
%TO.C,D2*%
X51424536Y135826036D03*
X51424536Y139126036D03*
%TD*%
%TO.C,D51*%
X170042536Y78424036D03*
X170042536Y81724036D03*
%TD*%
M02*
