%TF.GenerationSoftware,KiCad,Pcbnew,9.0.3*%
%TF.CreationDate,2025-08-06T18:50:18-07:00*%
%TF.ProjectId,PCB-Keyboard-EDIPO,5043422d-4b65-4796-926f-6172642d4544,rev?*%
%TF.SameCoordinates,Original*%
%TF.FileFunction,Soldermask,Top*%
%TF.FilePolarity,Negative*%
%FSLAX46Y46*%
G04 Gerber Fmt 4.6, Leading zero omitted, Abs format (unit mm)*
G04 Created by KiCad (PCBNEW 9.0.3) date 2025-08-06 18:50:18*
%MOMM*%
%LPD*%
G01*
G04 APERTURE LIST*
%ADD10C,2.250000*%
%ADD11C,0.650000*%
%ADD12O,1.000000X1.600000*%
%ADD13O,1.000000X2.100000*%
G04 APERTURE END LIST*
D10*
%TO.C,SW58*%
X310239736Y86562236D03*
X315239736Y87062236D03*
%TD*%
%TO.C,SW49*%
X124502236Y86562236D03*
X129502236Y87062236D03*
%TD*%
%TO.C,SW17*%
X53064736Y124662236D03*
X58064736Y125162236D03*
%TD*%
%TO.C,SW35*%
X114977236Y105612236D03*
X119977236Y106112236D03*
%TD*%
%TO.C,SW47*%
X86402236Y86562236D03*
X91402236Y87062236D03*
%TD*%
%TO.C,SW53*%
X200702236Y86562236D03*
X205702236Y87062236D03*
%TD*%
%TO.C,SW48*%
X105452236Y86562236D03*
X110452236Y87062236D03*
%TD*%
%TO.C,SW57*%
X291189736Y86562236D03*
X296189736Y87062236D03*
%TD*%
%TO.C,SW65*%
X272139736Y67512236D03*
X277139736Y68012236D03*
%TD*%
%TO.C,SW24*%
X186414736Y124662236D03*
X191414736Y125162236D03*
%TD*%
%TO.C,SW9*%
X176889736Y143712236D03*
X181889736Y144212236D03*
%TD*%
%TO.C,SW28*%
X262614736Y124662236D03*
X267614736Y125162236D03*
%TD*%
%TO.C,SW12*%
X234039736Y143712236D03*
X239039736Y144212236D03*
%TD*%
%TO.C,SW6*%
X119739736Y143712236D03*
X124739736Y144212236D03*
%TD*%
%TO.C,SW66*%
X291189736Y67512236D03*
X296189736Y68012236D03*
%TD*%
%TO.C,SW30*%
X310239736Y124662236D03*
X315239736Y125162236D03*
%TD*%
%TO.C,SW10*%
X195939736Y143712236D03*
X200939736Y144212236D03*
%TD*%
%TO.C,SW38*%
X172127236Y105612236D03*
X177127236Y106112236D03*
%TD*%
%TO.C,SW67*%
X310239736Y67512236D03*
X315239736Y68012236D03*
%TD*%
%TO.C,SW8*%
X157839736Y143712236D03*
X162839736Y144212236D03*
%TD*%
%TO.C,SW11*%
X214989736Y143712236D03*
X219989736Y144212236D03*
%TD*%
%TO.C,SW15*%
X310239736Y143712236D03*
X315239736Y144212236D03*
%TD*%
%TO.C,SW4*%
X81639736Y143712236D03*
X86639736Y144212236D03*
%TD*%
%TO.C,SW52*%
X181652236Y86562236D03*
X186652236Y87062236D03*
%TD*%
%TO.C,SW41*%
X229277236Y105612236D03*
X234277236Y106112236D03*
%TD*%
%TO.C,SW27*%
X243564736Y124662236D03*
X248564736Y125162236D03*
%TD*%
%TO.C,SW64*%
X253089736Y67512236D03*
X258089736Y68012236D03*
%TD*%
%TO.C,SW20*%
X110214736Y124662236D03*
X115214736Y125162236D03*
%TD*%
%TO.C,SW22*%
X148314736Y124662236D03*
X153314736Y125162236D03*
%TD*%
%TO.C,SW32*%
X57827236Y105612236D03*
X62827236Y106112236D03*
%TD*%
%TO.C,SW26*%
X224514736Y124662236D03*
X229514736Y125162236D03*
%TD*%
%TO.C,SW19*%
X91164736Y124662236D03*
X96164736Y125162236D03*
%TD*%
%TO.C,SW5*%
X100689736Y143712236D03*
X105689736Y144212236D03*
%TD*%
%TO.C,SW23*%
X167364736Y124662236D03*
X172364736Y125162236D03*
%TD*%
%TO.C,SW50*%
X143552236Y86562236D03*
X148552236Y87062236D03*
%TD*%
%TO.C,SW13*%
X253089736Y143712236D03*
X258089736Y144212236D03*
%TD*%
%TO.C,SW18*%
X72114736Y124662236D03*
X77114736Y125162236D03*
%TD*%
%TO.C,SW2*%
X43539736Y143712236D03*
X48539736Y144212236D03*
%TD*%
%TO.C,SW1*%
X24489736Y143712236D03*
X29489736Y144212236D03*
%TD*%
%TO.C,SW34*%
X95927236Y105612236D03*
X100927236Y106112236D03*
%TD*%
%TO.C,SW54*%
X219752236Y86562236D03*
X224752236Y87062236D03*
%TD*%
%TO.C,SW40*%
X210227236Y105612236D03*
X215227236Y106112236D03*
%TD*%
%TO.C,SW37*%
X153077236Y105612236D03*
X158077236Y106112236D03*
%TD*%
%TO.C,SW25*%
X205464736Y124662236D03*
X210464736Y125162236D03*
%TD*%
%TO.C,SW42*%
X248327236Y105612236D03*
X253327236Y106112236D03*
%TD*%
%TO.C,SW39*%
X191177236Y105612236D03*
X196177236Y106112236D03*
%TD*%
%TO.C,SW3*%
X62589736Y143712236D03*
X67589736Y144212236D03*
%TD*%
%TO.C,SW33*%
X76877236Y105612236D03*
X81877236Y106112236D03*
%TD*%
%TO.C,SW7*%
X138789736Y143712236D03*
X143789736Y144212236D03*
%TD*%
%TO.C,SW36*%
X134027236Y105612236D03*
X139027236Y106112236D03*
%TD*%
%TO.C,SW21*%
X129264736Y124662236D03*
X134264736Y125162236D03*
%TD*%
%TO.C,SW46*%
X67352236Y86562236D03*
X72352236Y87062236D03*
%TD*%
%TO.C,SW51*%
X162602236Y86562236D03*
X167602236Y87062236D03*
%TD*%
%TO.C,SW44*%
X310239736Y105612236D03*
X315239736Y106112236D03*
%TD*%
%TO.C,SW55*%
X238802236Y86562236D03*
X243802236Y87062236D03*
%TD*%
D11*
%TO.C,USB1*%
X166972736Y148537436D03*
X172752736Y148537436D03*
D12*
X165542736Y152187436D03*
D13*
X165542736Y148007436D03*
D12*
X174182736Y152187436D03*
D13*
X174182736Y148007436D03*
%TD*%
M02*
