M48
; DRILL file {KiCad 9.0.3} date 2025-08-06T18:52:08-0700
; FORMAT={-:-/ absolute / inch / decimal}
; #@! TF.CreationDate,2025-08-06T18:52:08-07:00
; #@! TF.GenerationSoftware,Kicad,Pcbnew,9.0.3
; #@! TF.FileFunction,Plated,1,2,PTH
FMAT,2
INCH
; #@! TA.AperFunction,Plated,PTH,ViaDrill
T1C0.0118
; #@! TA.AperFunction,Plated,PTH,ViaDrill
T2C0.0157
; #@! TA.AperFunction,Plated,PTH,ComponentDrill
T3C0.0236
; #@! TA.AperFunction,Plated,PTH,ComponentDrill
T4C0.0394
; #@! TA.AperFunction,Plated,PTH,ComponentDrill
T5C0.0579
%
G90
G05
T1
X1.3701Y5.464
X1.3701Y4.7553
X1.3701Y3.338
X2.0787Y4.0467
X2.0787Y3.338
X2.0787Y2.6294
X2.6213Y2.174
X2.7874Y4.7553
X2.7874Y4.0467
X2.7874Y3.338
X2.7874Y2.6294
X3.4961Y4.7553
X3.4961Y4.0467
X3.4961Y3.338
X4.2047Y4.7553
X4.2047Y4.0467
X4.2047Y2.6294
X4.9122Y2.1571
X4.9134Y5.464
X4.9134Y4.7553
X4.9134Y4.0467
X5.622Y5.464
X5.622Y4.7553
X5.622Y4.0467
X5.622Y2.6294
X6.2165Y4.5315
X6.2677Y4.5886
X6.2677Y4.4744
X6.3125Y2.1788
X6.3307Y2.6294
X6.3346Y5.7224
X6.3346Y4.187
X6.3425Y2.2008
X6.375Y2.2188
X6.4094Y2.2362
X6.4213Y3.8438
X6.4232Y4.0965
X6.4321Y4.2628
X6.4449Y2.2576
X6.4685Y3.9055
X6.4685Y3.7913
X6.4783Y4.5866
X6.4783Y4.4724
X6.5Y5.7188
X6.5207Y4.1722
X6.5488Y5.2249
X6.5625Y2.2812
X6.5669Y4.2933
X6.5748Y3.9055
X6.5748Y3.7913
X6.5886Y5.3563
X6.5886Y4.4016
X6.5938Y5.2812
X6.6122Y5.2185
X6.6339Y4.5886
X6.6339Y4.4744
X6.6339Y4.3563
X6.6417Y5.6378
X6.6417Y5.5177
X6.6732Y4.2047
X6.6988Y3.9075
X6.6988Y3.7933
X6.7264Y4.2579
X6.7303Y5.6378
X6.7303Y5.5177
X6.7382Y5.252
X6.753Y4.5896
X6.753Y4.4754
X6.7618Y5.315
X6.7693Y2.3118
X6.7757Y3.4473
X6.7812Y2.5312
X6.811Y4.5315
X6.8125Y2.5625
X6.8307Y5.3189
X6.8307Y5.2421
X6.8445Y3.9075
X6.8445Y3.7933
X6.875Y5.7188
X6.878Y5.2815
X6.9062Y3.8438
X6.9114Y3.2677
X6.9114Y3.1673
X6.9213Y5.7953
X7.0312Y5.7188
X7.0394Y4.7553
X7.1654Y3.2677
X7.1654Y3.1673
X7.2413Y2.2488
X7.2425Y2.1598
X7.3346Y3.1811
X7.6531Y2.239
X7.748Y4.7553
X7.748Y4.0467
X7.748Y3.338
X7.7992Y2.2323
X7.8189Y2.2835
X7.8346Y2.315
X7.8346Y2.2126
X7.8543Y2.3465
X7.8622Y2.189
X7.8745Y2.3707
X7.8898Y2.1693
X7.9976Y2.3567
X8.1457Y2.8983
X8.2677Y2.4685
X8.4567Y4.7553
X8.4567Y4.0467
X8.4567Y3.338
X9.1654Y5.464
X9.1654Y4.0467
X9.1654Y3.338
X9.874Y5.464
X9.874Y4.0467
X9.874Y2.6294
X9.9854Y2.1807
X10.5827Y5.464
X10.5827Y4.0467
X10.5827Y3.338
X10.5827Y2.6294
X11.2913Y5.464
X11.2913Y4.7553
X11.2913Y3.338
X11.2913Y2.6294
X11.4866Y2.1795
X12.0Y5.464
X12.0Y4.7553
X12.0Y4.0467
X12.0Y3.338
X12.0Y2.6294
T2
X6.4252Y5.8268
X6.4902Y5.187
X6.5Y3.125
X6.5433Y3.1562
X6.5492Y5.1407
X6.5551Y5.6693
X6.5938Y6.0312
X6.6875Y5.9135
X6.75Y5.1875
X6.7812Y6.0305
X6.811Y5.6693
X6.9062Y3.0312
X6.9062Y2.8125
X6.9062Y2.375
X6.9688Y2.875
X7.125Y3.0312
X7.1654Y5.7953
X7.3031Y2.874
X7.4062Y2.2188
X7.6622Y2.6114
X7.6996Y2.874
X7.9961Y3.0037
X8.0787Y2.5315
X8.0807Y2.6559
X8.0827Y2.874
T4
X8.4079Y2.8929
X8.4079Y2.7929
X8.4079Y2.6929
X8.5079Y2.8929
X8.5079Y2.7929
X8.5079Y2.6929
T5
X0.9642Y5.658
X1.1517Y4.908
X1.1517Y2.658
X1.161Y5.6776
X1.2454Y4.158
X1.3485Y4.9276
X1.3485Y2.6776
X1.4329Y3.408
X1.4423Y4.1776
X1.6298Y3.4276
X1.7142Y5.658
X1.911Y5.6776
X2.0892Y4.908
X2.1829Y2.658
X2.2767Y4.158
X2.286Y4.9276
X2.3798Y2.6776
X2.4642Y5.658
X2.4735Y4.1776
X2.6517Y3.408
X2.661Y5.6776
X2.8392Y4.908
X2.8485Y3.4276
X3.0267Y4.158
X3.036Y4.9276
X3.2142Y5.658
X3.2142Y2.658
X3.2235Y4.1776
X3.4017Y3.408
X3.411Y5.6776
X3.411Y2.6776
X3.5892Y4.908
X3.5985Y3.4276
X3.7767Y4.158
X3.786Y4.9276
X3.9642Y5.658
X3.9735Y4.1776
X4.1517Y3.408
X4.161Y5.6776
X4.3392Y4.908
X4.3485Y3.4276
X4.5267Y4.158
X4.536Y4.9276
X4.7142Y5.658
X4.7235Y4.1776
X4.9017Y3.408
X4.911Y5.6776
X5.0892Y4.908
X5.0985Y3.4276
X5.2767Y4.158
X5.286Y4.9276
X5.4642Y5.658
X5.4735Y4.1776
X5.6517Y3.408
X5.661Y5.6776
X5.8392Y4.908
X5.8485Y3.4276
X6.0267Y4.158
X6.036Y4.9276
X6.2142Y5.658
X6.2142Y2.658
X6.2235Y4.1776
X6.4017Y3.408
X6.411Y5.6776
X6.411Y2.6776
X6.5892Y4.908
X6.5985Y3.4276
X6.7767Y4.158
X6.786Y4.9276
X6.9642Y5.658
X6.9735Y4.1776
X7.1517Y3.408
X7.161Y5.6776
X7.3392Y4.908
X7.3485Y3.4276
X7.5267Y4.158
X7.536Y4.9276
X7.7142Y5.658
X7.7235Y4.1776
X7.9017Y3.408
X7.911Y5.6776
X8.0892Y4.908
X8.0985Y3.4276
X8.2767Y4.158
X8.286Y4.9276
X8.4642Y5.658
X8.4735Y4.1776
X8.6517Y3.408
X8.661Y5.6776
X8.8392Y4.908
X8.8485Y3.4276
X9.0267Y4.158
X9.036Y4.9276
X9.1204Y2.658
X9.2142Y5.658
X9.2235Y4.1776
X9.3173Y2.6776
X9.4017Y3.408
X9.411Y5.6776
X9.5892Y4.908
X9.5985Y3.4276
X9.7767Y4.158
X9.786Y4.9276
X9.9642Y5.658
X9.9642Y2.658
X9.9735Y4.1776
X10.161Y5.6776
X10.161Y2.6776
X10.3392Y4.908
X10.4329Y3.408
X10.536Y4.9276
X10.6298Y3.4276
X10.7142Y2.658
X10.911Y2.6776
X10.9954Y4.158
X11.0892Y5.658
X11.1923Y4.1776
X11.2767Y4.908
X11.286Y5.6776
X11.4642Y3.408
X11.4642Y2.658
X11.4735Y4.9276
X11.661Y3.4276
X11.661Y2.6776
X12.2142Y5.658
X12.2142Y4.908
X12.2142Y4.158
X12.2142Y3.408
X12.2142Y2.658
X12.411Y5.6776
X12.411Y4.9276
X12.411Y4.1776
X12.411Y3.4276
X12.411Y2.6776
T3
G00X6.5174Y6.0034
M15
G01X6.5174Y5.9798
M16
G05
G00X6.5174Y5.8487
M15
G01X6.5174Y5.8054
M16
G05
G00X6.8576Y6.0034
M15
G01X6.8576Y5.9798
M16
G05
G00X6.8576Y5.8487
M15
G01X6.8576Y5.8054
M16
G05
M30
