M48
; DRILL file {KiCad 9.0.3} date 2025-08-18T15:50:04-0700
; FORMAT={-:-/ absolute / inch / decimal}
; #@! TF.CreationDate,2025-08-18T15:50:04-07:00
; #@! TF.GenerationSoftware,Kicad,Pcbnew,9.0.3
; #@! TF.FileFunction,NonPlated,1,2,NPTH
FMAT,2
INCH
; #@! TA.AperFunction,NonPlated,NPTH,ComponentDrill
T1C0.0256
; #@! TA.AperFunction,NonPlated,NPTH,ComponentDrill
T2C0.0689
; #@! TA.AperFunction,NonPlated,NPTH,ComponentDrill
T3C0.1200
; #@! TA.AperFunction,NonPlated,NPTH,ComponentDrill
T4C0.1570
%
G90
G05
T1
X8.1776Y-2.5982
X8.4051Y-2.5982
T2
X2.4664Y-2.9456
X2.6539Y-3.6956
X2.6539Y-5.9456
X2.7477Y-4.4456
X2.8664Y-2.9456
X2.9352Y-5.1956
X3.0539Y-3.6956
X3.0539Y-5.9456
X3.1477Y-4.4456
X3.2164Y-2.9456
X3.3352Y-5.1956
X3.5914Y-3.6956
X3.6164Y-2.9456
X3.6852Y-5.9456
X3.7789Y-4.4456
X3.9664Y-2.9456
X3.9914Y-3.6956
X4.0852Y-5.9456
X4.1539Y-5.1956
X4.1789Y-4.4456
X4.3414Y-3.6956
X4.3664Y-2.9456
X4.5289Y-4.4456
X4.5539Y-5.1956
X4.6224Y-5.9456
X4.7164Y-2.9456
X4.7414Y-3.6956
X4.9039Y-5.1956
X4.9289Y-4.4456
X5.0224Y-5.9456
X5.0914Y-3.6956
X5.1164Y-2.9456
X5.2789Y-4.4456
X5.3039Y-5.1956
X5.4664Y-2.9456
X5.4914Y-3.6956
X5.6539Y-5.1956
X5.6789Y-4.4456
X5.8414Y-3.6956
X5.8664Y-2.9456
X6.0289Y-4.4456
X6.0539Y-5.1956
X6.2164Y-2.9456
X6.2414Y-3.6956
X6.4039Y-5.1956
X6.4289Y-4.4456
X6.5914Y-3.6956
X6.6164Y-2.9456
X6.7789Y-4.4456
X6.8039Y-5.1956
X6.9664Y-2.9456
X6.9914Y-3.6956
X7.1539Y-5.1956
X7.1789Y-4.4456
X7.3414Y-3.6956
X7.3664Y-2.9456
X7.5289Y-4.4456
X7.5539Y-5.1956
X7.7164Y-2.9456
X7.7164Y-5.9456
X7.7414Y-3.6956
X7.9039Y-5.1956
X7.9289Y-4.4456
X8.0914Y-3.6956
X8.1164Y-2.9456
X8.1164Y-5.9456
X8.2789Y-4.4456
X8.3039Y-5.1956
X8.4664Y-2.9456
X8.4914Y-3.6956
X8.6539Y-5.1956
X8.6789Y-4.4456
X8.8414Y-3.6956
X8.8664Y-2.9456
X9.0289Y-4.4456
X9.0539Y-5.1956
X9.2164Y-2.9456
X9.2414Y-3.6956
X9.4039Y-5.1956
X9.4289Y-4.4456
X9.5914Y-3.6956
X9.6164Y-2.9456
X9.7789Y-4.4456
X9.8039Y-5.1956
X9.9664Y-2.9456
X9.9914Y-3.6956
X10.1539Y-5.1956
X10.1789Y-4.4456
X10.3414Y-3.6956
X10.3664Y-2.9456
X10.5289Y-4.4456
X10.5539Y-5.1956
X10.7158Y-5.9456
X10.7164Y-2.9456
X10.7414Y-3.6956
X10.9039Y-5.1956
X10.9289Y-4.4456
X11.0914Y-3.6956
X11.1158Y-5.9456
X11.1164Y-2.9456
X11.2789Y-4.4456
X11.3039Y-5.1956
X11.4664Y-2.9456
X11.4664Y-5.9456
X11.4914Y-3.6956
X11.6789Y-4.4456
X11.8414Y-3.6956
X11.8664Y-2.9456
X11.8664Y-5.9456
X11.9352Y-5.1956
X12.2164Y-5.9456
X12.2414Y-3.6956
X12.3352Y-5.1956
X12.4977Y-4.4456
X12.5914Y-2.9456
X12.6164Y-5.9456
X12.7789Y-3.6956
X12.8977Y-4.4456
X12.9664Y-5.1956
X12.9664Y-5.9456
X12.9914Y-2.9456
X13.1789Y-3.6956
X13.3664Y-5.1956
X13.3664Y-5.9456
X13.7164Y-2.9456
X13.7164Y-3.6956
X13.7164Y-4.4456
X13.7164Y-5.1956
X13.7164Y-5.9456
X14.1164Y-2.9456
X14.1164Y-3.6956
X14.1164Y-4.4456
X14.1164Y-5.1956
X14.1164Y-5.9456
T3
X2.6664Y-4.9206
X3.6039Y-4.9206
X5.6664Y-6.2206
X10.1664Y-6.2206
X12.2289Y-4.1706
X12.3227Y-2.6706
X13.1664Y-4.1706
X13.2602Y-2.6706
T4
X2.6664Y-2.9456
X2.6664Y-5.5206
X2.8539Y-3.6956
X2.8539Y-5.9456
X2.9477Y-4.4456
X3.1352Y-5.1956
X3.4164Y-2.9456
X3.6039Y-5.5206
X3.7914Y-3.6956
X3.8852Y-5.9456
X3.9789Y-4.4456
X4.1664Y-2.9456
X4.3539Y-5.1956
X4.5414Y-3.6956
X4.7289Y-4.4456
X4.8224Y-5.9456
X4.9164Y-2.9456
X5.1039Y-5.1956
X5.2914Y-3.6956
X5.4789Y-4.4456
X5.6664Y-2.9456
X5.6664Y-5.6206
X5.8539Y-5.1956
X6.0414Y-3.6956
X6.2289Y-4.4456
X6.4164Y-2.9456
X6.6039Y-5.1956
X6.7914Y-3.6956
X6.9789Y-4.4456
X7.1664Y-2.9456
X7.3539Y-5.1956
X7.5414Y-3.6956
X7.7289Y-4.4456
X7.9164Y-2.9456
X7.9164Y-5.9456
X8.1039Y-5.1956
X8.2914Y-3.6956
X8.4789Y-4.4456
X8.6664Y-2.9456
X8.8539Y-5.1956
X9.0414Y-3.6956
X9.2289Y-4.4456
X9.4164Y-2.9456
X9.6039Y-5.1956
X9.7914Y-3.6956
X9.9789Y-4.4456
X10.1664Y-2.9456
X10.1664Y-5.6206
X10.3539Y-5.1956
X10.5414Y-3.6956
X10.7289Y-4.4456
X10.9158Y-5.9456
X10.9164Y-2.9456
X11.1039Y-5.1956
X11.2914Y-3.6956
X11.4789Y-4.4456
X11.6664Y-2.9456
X11.6664Y-5.9456
X12.0414Y-3.6956
X12.1352Y-5.1956
X12.2289Y-4.7706
X12.3227Y-3.2706
X12.4164Y-5.9456
X12.6977Y-4.4456
X12.7914Y-2.9456
X12.9789Y-3.6956
X13.1664Y-4.7706
X13.1664Y-5.1956
X13.1664Y-5.9456
X13.2602Y-3.2706
X13.9164Y-2.9456
X13.9164Y-3.6956
X13.9164Y-4.4456
X13.9164Y-5.1956
X13.9164Y-5.9456
M30
